<svg width="28" height="31" viewBox="0 0 28 31" fill="none" xmlns="http://www.w3.org/2000/svg">
<path d="M22.8852 8.33332L26.0451 5.17342C23.3202 2.38732 19.5234 0.65332 15.3276 0.65332C7.05664 0.65332 0.327637 7.38232 0.327637 15.6536C0.327637 23.9249 7.05664 30.6533 15.3276 30.6533C19.4028 30.6533 23.1015 29.0177 25.8075 26.3711L22.6473 23.2109C20.751 25.0481 18.1701 26.1821 15.3273 26.1821C9.52144 26.1821 4.79824 21.4589 4.79824 15.6533C4.79824 9.84772 9.52204 5.12422 15.3276 5.12422C18.2907 5.12422 20.97 6.35662 22.8852 8.33332ZM17.4405 15.4169V18.8333C17.226 19.0301 16.9935 19.1195 16.7787 19.1195C16.278 19.1195 15.795 18.5648 15.795 17.5634C15.795 16.4903 16.0455 16.025 17.1186 15.56L17.4405 15.4169ZM17.4405 14.2541V15.1664L15.8664 15.5957C13.7916 16.1681 12.8256 17.0804 12.8256 18.4397C12.8256 19.6559 13.6662 20.4074 14.9364 20.4074C15.9918 20.4074 17.0292 19.7816 17.6013 18.9587C17.6727 19.6205 17.9949 20.4074 19.3542 20.4074C20.8569 20.4074 21.6795 19.352 21.9657 18.7796L21.8583 18.7082C21.7509 18.8336 21.5364 19.0838 21.1785 19.0838C20.6241 19.0838 20.6241 18.5651 20.6241 17.8316V13.9322C20.6241 11.8217 19.4076 10.6052 17.3685 10.6052C15.3294 10.6052 13.7733 11.7323 13.1829 13.5926L13.2903 13.6463C13.7553 12.752 14.6676 11.9648 15.7764 11.9648C17.4399 11.9648 17.4399 13.7534 17.4399 14.2544M27.6717 20.1926V20.0852C26.9382 20.0852 26.8845 19.4771 26.8845 18.3323V10.6409H26.8131L22.6812 11.4278V11.5352C23.2893 11.7497 23.5935 12.0716 23.5935 13.2164V18.3323C23.5935 19.4771 23.5398 20.0852 22.8066 20.0852V20.1926H27.6717Z" fill="url(#paint0_linear_819_3630)"/>
<defs>
<linearGradient id="paint0_linear_819_3630" x1="0.327637" y1="15.6533" x2="27.6717" y2="15.6533" gradientUnits="userSpaceOnUse">
<stop stop-color="#15A0A2"/>
<stop offset="1" stop-color="#72EEDC"/>
</linearGradient>
</defs>
</svg>
