<svg width="60" height="61" viewBox="0 0 60 61" fill="none" xmlns="http://www.w3.org/2000/svg">
<g clip-path="url(#clip0_3079_84495)">
<path d="M30 0.65332C13.1025 0.65332 0 13.0358 0 29.7533C0 38.4983 3.585 46.0583 9.42 51.2783C9.9075 51.7133 10.2075 52.3283 10.2225 52.9883L10.3875 58.3283C10.3995 58.7212 10.5079 59.1052 10.703 59.4464C10.8981 59.7876 11.1741 60.0757 11.5067 60.2853C11.8392 60.4949 12.2182 60.6196 12.6102 60.6485C13.0022 60.6773 13.3953 60.6095 13.755 60.4508L19.71 57.8258C20.2125 57.6008 20.7825 57.5633 21.315 57.7058C24.0525 58.4558 26.9625 58.8608 30 58.8608C46.8975 58.8608 60 46.4783 60 29.7608C60 13.0433 46.8975 0.65332 30 0.65332Z" fill="url(#paint0_radial_3079_84495)"/>
<path d="M11.9844 38.2661L20.7969 24.2861C21.1284 23.7597 21.5654 23.3078 22.0804 22.9589C22.5953 22.61 23.177 22.3716 23.7888 22.2589C24.4005 22.1461 25.029 22.1614 25.6345 22.3038C26.24 22.4461 26.8095 22.7125 27.3069 23.0861L34.3194 28.3436C34.6324 28.5779 35.0133 28.704 35.4044 28.7026C35.7954 28.7013 36.1754 28.5726 36.4869 28.3361L45.9519 21.1511C47.2119 20.1911 48.8619 21.7061 48.0219 23.0486L39.2019 37.0211C38.8703 37.5474 38.4333 37.9993 37.9183 38.3482C37.4034 38.6971 36.8217 38.9355 36.2099 39.0482C35.5982 39.161 34.9697 39.1457 34.3642 39.0033C33.7587 38.861 33.1892 38.5946 32.6919 38.2211L25.6794 32.9636C25.3663 32.7292 24.9854 32.6031 24.5944 32.6045C24.2033 32.6058 23.8233 32.7345 23.5119 32.9711L14.0469 40.1561C12.7869 41.1161 11.1369 39.6086 11.9844 38.2661Z" fill="white"/>
</g>
<defs>
<radialGradient id="paint0_radial_3079_84495" cx="0" cy="0" r="1" gradientUnits="userSpaceOnUse" gradientTransform="translate(10.05 60.6533) scale(66 66)">
<stop stop-color="#0099FF"/>
<stop offset="0.6" stop-color="#A033FF"/>
<stop offset="0.9" stop-color="#FF5280"/>
<stop offset="1" stop-color="#FF7061"/>
</radialGradient>
<clipPath id="clip0_3079_84495">
<rect width="60" height="60" fill="white" transform="translate(0 0.65332)"/>
</clipPath>
</defs>
</svg>
